<svg width="65" height="87" viewBox="0 0 65 87" fill="none" xmlns="http://www.w3.org/2000/svg">
<g clip-path="url(#clip0_27_36)">
<path d="M63.7797 27.4776L63.7436 67.5663L63.7418 75.3203C63.7337 81.4815 57.786 86.4312 50.4411 86.3729L13.7492 86.0813C6.42056 86.0069 0.46559 80.9665 0.473629 74.7891L0.511466 26.9465C0.50788 21.9595 4.42571 17.7587 9.79755 16.3783L9.80363 13.8044L9.79835 12.4852L54.5074 12.8537L54.5066 16.7467C59.8735 18.2298 63.776 22.4746 63.7797 27.4776Z" fill="url(#paint0_linear_27_36)"/>
<path d="M63.7797 27.4776L63.7436 67.5663L63.7418 75.3203C63.7337 81.4815 57.786 86.4312 50.4411 86.3729L13.7492 86.0813C6.42056 86.0069 0.46559 80.9665 0.473629 74.7891L0.511466 26.9465C0.50788 21.9595 4.42571 17.7587 9.79755 16.3783L9.80363 13.8044L9.79835 12.4852L54.5074 12.8537L54.5066 16.7467C59.8735 18.2298 63.776 22.4746 63.7797 27.4776Z" fill="black" fill-opacity="0.2"/>
<path d="M57.7943 2.56974L57.7957 2.92366L57.7797 7.10622L57.7633 11.2084L57.7653 11.7071C57.7684 12.4792 57.1152 13.1043 56.3282 13.1015L55.9839 13.1003L53.8198 13.0765L51.4425 13.0519L49.2783 13.0281L46.901 13.0036L44.704 12.9636L42.3267 12.939L40.1626 12.9152L37.7689 12.8906L35.5883 12.8667L33.211 12.8422L31.0468 12.8023L28.6695 12.7777L26.5054 12.7539L24.1117 12.7293L21.9311 12.7055L19.5702 12.681L17.4061 12.6572L15.0288 12.6326L12.8482 12.6087L10.4709 12.5842L8.29037 12.5603L7.94608 12.5591C7.15914 12.5563 6.51717 11.9105 6.51407 11.1383L6.51401 11.1222L6.51259 10.7683L6.54504 2.49972L6.54304 2.00102C6.53995 1.22883 7.19322 0.603767 7.99656 0.60663L8.34085 0.607856L12.8987 0.656272L17.4565 0.704688L19.6371 0.728545L22.0144 0.753104L24.1785 0.776903L28.7201 0.841347L31.0974 0.865905L33.2615 0.889704L35.6388 0.914263L37.803 0.938062L40.1803 0.96262L42.3444 0.986419L44.7217 1.01098L46.8859 1.03478L49.296 1.07554L51.4602 1.09934L53.8375 1.1239L56.018 1.14775L56.3623 1.14898C57.1657 1.16793 57.7912 1.79755 57.7943 2.56974Z" fill="url(#paint1_linear_27_36)"/>
<path d="M57.7958 2.93971L57.7797 7.10619L57.7633 11.2083L55.8123 11.1853L53.2219 11.16L50.8446 11.1354L48.2378 11.1261L45.8606 11.1016L43.2701 11.0762L40.8928 11.0517L38.2861 11.0424L35.9088 11.0178L33.302 10.9925L30.9411 10.968L28.3343 10.9587L25.957 10.9341L23.3502 10.9087L20.9729 10.8842L18.3826 10.8749L16.0053 10.8504L13.3985 10.825L11.0212 10.8004L8.43083 10.7912L6.51259 10.7683L6.54504 2.49968L11.1028 2.53201L16.0705 2.58189L18.4478 2.60645L21.0546 2.63182L23.4319 2.6403L28.3996 2.69017L31.0064 2.71555L33.3836 2.72402L35.9904 2.7494L38.3513 2.7739L40.9581 2.79927L43.3354 2.80774L45.9422 2.83312L48.3031 2.85762L50.9099 2.883L53.2871 2.89147L55.8939 2.91684L57.7958 2.93971Z" fill="url(#paint2_linear_27_36)"/>
<path d="M63.7655 35.9419L0.497345 35.4229L0.474968 62.9476L63.7432 63.4667L63.7655 35.9419Z" fill="#F7F9FC"/>
<path d="M63.7767 35.9418L0.50853 35.4229L0.504509 40.3776L63.7727 40.8966L63.7767 35.9418Z" fill="#FBFCF7"/>
<path d="M25.2145 46.5781L21.1322 46.5475L21.1325 42.5258L15.5091 42.4896L15.5087 46.4953L11.4264 46.4647L11.4156 51.9664L15.498 51.997L15.4977 56.0188L21.1211 56.0549L21.1215 52.0492L25.2038 52.0799L25.2145 46.5781Z" fill="url(#paint3_linear_27_36)"/>
<path d="M52.9597 48.0122L32.7283 47.8436C32.1872 47.8417 31.7428 47.4057 31.7407 46.8748L31.7389 46.4244C31.7368 45.8935 32.1777 45.4607 32.7187 45.4627L52.9501 45.6313C53.4912 45.6332 53.9355 46.0692 53.9377 46.6L53.9395 47.0505C53.9416 47.5814 53.5007 48.0141 52.9597 48.0122Z" fill="url(#paint4_linear_27_36)"/>
<path opacity="0.5" d="M52.9669 53.9162L32.7355 53.7476C32.1945 53.7456 31.7501 53.3097 31.748 52.7788L31.7462 52.3284C31.744 51.7975 32.185 51.3647 32.726 51.3667L52.9574 51.5353C53.4984 51.5372 53.9428 51.9731 53.9449 52.504L53.9467 52.9545C53.9489 53.4853 53.508 53.9181 52.9669 53.9162Z" fill="url(#paint5_linear_27_36)"/>
<path opacity="0.08" d="M6.47901 2.38687L6.48043 2.74079L6.52997 6.92359L6.57913 11.0099L6.58113 11.5086C6.58423 12.2808 7.24253 12.9105 8.02947 12.9133L8.37376 12.9145L10.5542 12.9062L12.9313 12.8986L15.0954 12.8902L17.4725 12.8826L19.6366 12.8742L22.0137 12.8666L24.1778 12.8582L26.5549 12.8506L28.7354 12.8423L31.1125 12.8347L33.2765 12.8263L35.6537 12.8187L37.8177 12.8103L40.1949 12.8027L42.3753 12.7944L44.7525 12.7868L46.9165 12.7784L49.2937 12.7708L51.4577 12.7624L53.8349 12.7548L56.0153 12.7465L56.3596 12.7477C57.1465 12.7505 57.7833 12.1093 57.7803 11.3371L57.7802 11.321L57.7788 10.9671C32.4205 11.9546 7.89967 0.976274 7.89967 0.976274C7.11279 0.989557 6.47591 1.61468 6.47901 2.38687Z" fill="#1A6FB5"/>
</g>
<defs>
<linearGradient id="paint0_linear_27_36" x1="0.222036" y1="11.9942" x2="57.5492" y2="92.8025" gradientUnits="userSpaceOnUse">
<stop stop-color="#6CBCFC"/>
<stop offset="1" stop-color="#458DFC"/>
</linearGradient>
<linearGradient id="paint1_linear_27_36" x1="-646.607" y1="-41.946" x2="-27.9491" y2="-0.500095" gradientUnits="userSpaceOnUse">
<stop stop-color="#B0F4FF"/>
<stop offset="0.0525488" stop-color="#A9F2FF"/>
<stop offset="0.2879" stop-color="#8DE8FE"/>
<stop offset="0.5247" stop-color="#79E1FD"/>
<stop offset="0.7618" stop-color="#6DDDFC"/>
<stop offset="1" stop-color="#69DCFC"/>
</linearGradient>
<linearGradient id="paint2_linear_27_36" x1="6.50361" y1="6.75862" x2="57.8124" y2="6.55305" gradientUnits="userSpaceOnUse">
<stop stop-color="#B0F4FF"/>
<stop offset="0.0525488" stop-color="#A9F2FF"/>
<stop offset="0.2879" stop-color="#8DE8FE"/>
<stop offset="0.5247" stop-color="#79E1FD"/>
<stop offset="0.7618" stop-color="#6DDDFC"/>
<stop offset="1" stop-color="#69DCFC"/>
</linearGradient>
<linearGradient id="paint3_linear_27_36" x1="22.9105" y1="44.0669" x2="13.52" y2="55.0941" gradientUnits="userSpaceOnUse">
<stop stop-color="#6CBCFC"/>
<stop offset="1" stop-color="#458DFC"/>
</linearGradient>
<linearGradient id="paint4_linear_27_36" x1="54.1335" y1="46.7724" x2="30.0134" y2="46.8691" gradientUnits="userSpaceOnUse">
<stop stop-color="#6CBCFC"/>
<stop offset="1" stop-color="#458DFC"/>
</linearGradient>
<linearGradient id="paint5_linear_27_36" x1="31.7457" y1="52.5963" x2="53.9453" y2="52.5074" gradientUnits="userSpaceOnUse">
<stop stop-color="#6CBCFC"/>
<stop offset="1" stop-color="#458DFC"/>
</linearGradient>
<clipPath id="clip0_27_36">
<rect width="62.9708" height="86.3733" fill="white" transform="matrix(1.00835 0.00359322 0.00397146 0.991235 0.1763 0.578735)"/>
</clipPath>
</defs>
</svg>
